<mxfile host="Electron" modified="2024-06-21T11:00:00.597Z" agent="Mozilla/5.0 (Windows NT 10.0; Win64; x64) AppleWebKit/537.36 (KHTML, like Gecko) draw.io/24.5.3 Chrome/124.0.6367.207 Electron/30.0.6 Safari/537.36" etag="_w0hHrqz9OX2fgpQdWAk" version="24.5.3" type="device">
  <diagram name="Page-1" id="b5b7bab2-c9e2-2cf4-8b2a-24fd1a2a6d21">
    <mxGraphModel dx="2026" dy="1183" grid="1" gridSize="10" guides="1" tooltips="1" connect="1" arrows="1" fold="1" page="1" pageScale="1" pageWidth="827" pageHeight="1169" background="none" math="0" shadow="0">
      <root>
        <mxCell id="0" />
        <mxCell id="1" parent="0" />
        <mxCell id="K8bP3X766tkJ9hSVuGqO-4" value="Docker-compose" style="verticalAlign=top;align=left;spacingTop=8;spacingLeft=2;spacingRight=12;shape=cube;size=10;direction=south;fontStyle=4;html=1;whiteSpace=wrap;" vertex="1" parent="1">
          <mxGeometry x="60" y="40" width="1390" height="910" as="geometry" />
        </mxCell>
        <mxCell id="K8bP3X766tkJ9hSVuGqO-2" value="database" style="shape=module;align=left;spacingLeft=20;align=center;verticalAlign=top;whiteSpace=wrap;html=1;" vertex="1" parent="1">
          <mxGeometry x="130" y="110" width="230" height="120" as="geometry" />
        </mxCell>
        <mxCell id="K8bP3X766tkJ9hSVuGqO-5" value="docker postgresql image" style="shape=folder;fontStyle=1;spacingTop=10;tabWidth=40;tabHeight=14;tabPosition=left;html=1;whiteSpace=wrap;" vertex="1" parent="1">
          <mxGeometry x="200" y="140" width="110" height="60" as="geometry" />
        </mxCell>
        <mxCell id="K8bP3X766tkJ9hSVuGqO-9" value="" style="group" vertex="1" connectable="0" parent="1">
          <mxGeometry x="130" y="390" width="390" height="170" as="geometry" />
        </mxCell>
        <mxCell id="K8bP3X766tkJ9hSVuGqO-1" value="telegam-messaging-client" style="shape=module;align=left;spacingLeft=20;align=center;verticalAlign=top;whiteSpace=wrap;html=1;" vertex="1" parent="K8bP3X766tkJ9hSVuGqO-9">
          <mxGeometry width="390" height="170" as="geometry" />
        </mxCell>
        <mxCell id="K8bP3X766tkJ9hSVuGqO-6" value="chats manager" style="shape=folder;fontStyle=1;spacingTop=10;tabWidth=40;tabHeight=14;tabPosition=left;html=1;whiteSpace=wrap;" vertex="1" parent="K8bP3X766tkJ9hSVuGqO-9">
          <mxGeometry x="60" y="45" width="120" height="80" as="geometry" />
        </mxCell>
        <mxCell id="K8bP3X766tkJ9hSVuGqO-8" value="advert messages manager" style="shape=folder;fontStyle=1;spacingTop=10;tabWidth=40;tabHeight=14;tabPosition=left;html=1;whiteSpace=wrap;" vertex="1" parent="K8bP3X766tkJ9hSVuGqO-9">
          <mxGeometry x="210" y="45" width="120" height="80" as="geometry" />
        </mxCell>
        <mxCell id="K8bP3X766tkJ9hSVuGqO-11" value="" style="group" vertex="1" connectable="0" parent="1">
          <mxGeometry x="570" y="390" width="390" height="170" as="geometry" />
        </mxCell>
        <mxCell id="K8bP3X766tkJ9hSVuGqO-12" value="api" style="shape=module;align=left;spacingLeft=20;align=center;verticalAlign=top;whiteSpace=wrap;html=1;" vertex="1" parent="K8bP3X766tkJ9hSVuGqO-11">
          <mxGeometry width="390" height="170" as="geometry" />
        </mxCell>
        <mxCell id="K8bP3X766tkJ9hSVuGqO-16" value="messaging-client-api" style="shape=folder;fontStyle=1;spacingTop=10;tabWidth=40;tabHeight=14;tabPosition=left;html=1;whiteSpace=wrap;" vertex="1" parent="K8bP3X766tkJ9hSVuGqO-11">
          <mxGeometry x="30" y="45" width="120" height="80" as="geometry" />
        </mxCell>
      </root>
    </mxGraphModel>
  </diagram>
</mxfile>
